PathFileType	4	(X/Y/Z)	TVC_4_BWA_8_walk_RCNL2025.trc
DataRate	CameraRate	NumFrames	NumMarkers	Units	OrigDataRate	OrigDataStartFrame	OrigNumFrames
100	100	7	27	mm	100	1	294
Frame#	Time	R_Shoulder			L_Shoulder			C7			J_Notch			R_Elbow			L_Elbow			R_Wrist			L_Wrist			R_Asis			L_Asis			R_Psis			L_Psis			Sacral			Thoracic			Sternum			R_Thigh_Lateral			R_Knee_Lateral			R_Shank_Lateral			R_Ankle_Lateral			R_Heel			R_Toe			L_Thigh_Lateral			L_Knee_Lateral			L_Shank_Lateral			L_Ankle_Lateral			L_Heel			L_Toe		
		X1	Y1	Z1	X2	Y2	Z2	X3	Y3	Z3	X4	Y4	Z4	X5	Y5	Z5	X6	Y6	Z6	X7	Y7	Z7	X8	Y8	Z8	X9	Y9	Z9	X10	Y10	Z10	X11	Y11	Z11	X12	Y12	Z12	X13	Y13	Z13	X14	Y14	Z14	X15	Y15	Z15	X16	Y16	Z16	X17	Y17	Z17	X18	Y18	Z18	X19	Y19	Z19	X20	Y20	Z20	X21	Y21	Z21	X22	Y22	Z22	X23	Y23	Z23	X24	Y24	Z24	X25	Y25	Z25	X26	Y26	Z26	X27	Y27	Z27
1	0.00000000	-1475.895386	1297.866821	346.154602	-1446.405884	1321.007446	-32.231991	-1522.029907	1375.609009	167.714981	-1378.748535	1255.628296	150.119308	-1510.271606	981.217957	400.212006	-1481.327393	997.491089	-110.404198	-1424.283630	767.853180	385.765289	-1371.518372	813.024200	-105.861485	-1459.046021	864.617920	322.040985	-1490.442261	856.944702	-31.396553	-1612.739258	899.025818	208.642715	-1616.512695	898.668091	116.500664	-1614.625977	898.846954	162.571690	-1601.151855	1129.172119	153.558502	-1343.516479	1064.733521	144.868149	-1345.998779	542.220154	343.448517	-1335.035645	453.612366	298.256500	-1383.892578	298.307617	372.603210	-1429.762939	84.141808	292.425415	-1476.759766	82.816368	245.382462	-1307.606934	49.284122	274.757843	-1474.939819	496.509735	-22.148041	-1487.018921	415.283051	30.389780	-1505.881226	290.986450	-6.907130	-1559.780518	48.830730	85.137596	-1605.163940	43.274197	132.578125	-1425.192383	36.094715	100.053383
2	0.01000000	-1467.153320	1297.365723	346.612579	-1436.440674	1320.844360	-31.583328	-1512.618652	1375.182983	168.059158	-1369.536255	1254.969727	150.763474	-1505.039551	981.249634	400.544281	-1468.782959	997.444763	-111.133675	-1422.640930	766.475494	388.253510	-1355.894409	814.834320	-105.000740	-1449.691284	864.375793	322.604858	-1482.480835	856.407593	-30.914839	-1603.911011	898.712830	209.646744	-1608.006714	898.222290	117.586319	-1605.958862	898.467560	163.616531	-1592.186523	1128.797729	153.632584	-1334.785278	1063.983765	145.302689	-1338.162720	542.152649	343.690826	-1326.113525	453.373566	298.894684	-1365.462158	294.323761	373.544525	-1397.360718	77.999352	292.976074	-1444.027832	73.703224	245.772400	-1273.175171	50.837948	275.542389	-1470.251587	495.968292	-21.680492	-1482.982544	414.756287	30.911549	-1503.077515	290.765472	-6.558720	-1559.581543	48.949398	85.206879	-1605.056274	43.548111	132.604691	-1425.112061	36.055019	100.100624
3	0.02000000	-1458.311279	1296.739380	347.113617	-1426.515381	1320.528076	-30.905315	-1503.190674	1374.635254	168.461349	-1360.290527	1254.203125	151.411697	-1499.707642	981.183716	400.909119	-1456.443848	997.250793	-111.743927	-1420.864990	765.097961	390.740326	-1340.473328	816.560028	-104.080708	-1440.206177	863.953918	323.207733	-1474.491943	855.745056	-30.335884	-1594.972900	898.243103	210.738892	-1599.405273	897.629517	118.764259	-1597.189087	897.936310	164.751575	-1583.173462	1128.290894	153.824738	-1325.967896	1063.129639	145.725677	-1331.233398	541.410339	344.120117	-1317.986572	452.603851	299.599426	-1347.528076	290.409058	374.374268	-1365.236328	72.816628	293.303253	-1411.352295	65.605392	245.920609	-1239.349487	53.524937	276.267975	-1465.489502	495.371521	-21.170343	-1478.872559	414.177948	31.481379	-1500.311646	290.555023	-6.206444	-1559.385498	49.078018	85.279892	-1604.949097	43.828205	132.634842	-1425.039551	36.014313	100.150467
4	0.03000000	-1449.368408	1295.992310	347.663544	-1416.630127	1320.066406	-30.194088	-1493.745850	1373.975586	168.927216	-1351.009033	1253.339600	152.070480	-1494.247559	981.021118	401.313965	-1444.322021	996.910706	-112.226578	-1418.918396	763.724396	393.211090	-1325.286316	818.191040	-103.105423	-1430.595947	863.367798	323.848022	-1466.485107	854.958252	-29.663830	-1585.922729	897.626404	211.914841	-1590.701538	896.898743	120.029007	-1588.312134	897.262573	165.971924	-1574.109863	1127.661621	154.138092	-1317.060059	1062.181274	146.145157	-1325.066162	540.002319	344.808258	-1310.517334	451.358032	300.364563	-1330.209717	286.741547	375.086517	-1333.825562	68.645042	293.375000	-1379.228027	58.668324	245.834045	-1206.576904	57.238548	276.802216	-1460.636108	494.710541	-20.617041	-1474.693237	413.546265	32.100731	-1497.577637	290.347687	-5.845942	-1559.197144	49.210743	85.358032	-1604.842041	44.113556	132.669022	-1424.978760	35.973904	100.201385
5	0.04000000	-1440.326416	1295.132568	348.268433	-1406.786377	1319.471558	-29.445848	-1484.284058	1373.217041	169.462357	-1341.690430	1252.393555	152.747269	-1488.631714	980.765442	401.766602	-1432.427979	996.430054	-112.573868	-1416.763672	762.360321	395.652786	-1310.365112	819.718414	-102.078999	-1420.867432	862.637024	324.524933	-1458.457764	854.050720	-28.902861	-1576.759766	896.876892	213.169678	-1581.890381	896.042847	121.374191	-1579.325073	896.459869	167.271935	-1564.993530	1126.923218	154.574356	-1308.058838	1061.152222	146.570312	-1319.442505	537.981506	345.819885	-1303.533081	449.711365	301.182617	-1313.568970	283.446930	375.688873	-1303.618652	65.455475	293.159454	-1348.222168	52.958858	245.514862	-1175.355957	61.734383	277.002563	-1455.671753	493.975708	-20.019907	-1470.448608	412.860168	32.771091	-1494.852417	290.130707	-5.468284	-1559.021484	49.341839	85.443253	-1604.736328	44.404095	132.709244	-1424.932617	35.935474	100.252472
6	0.05000000	-1431.188721	1294.172485	348.934326	-1396.986328	1318.759888	-28.657087	-1474.805664	1372.375854	170.072067	-1332.333618	1251.382446	153.450073	-1482.834106	980.423157	402.274597	-1420.770996	995.818909	-112.778633	-1414.363098	761.013092	398.054138	-1295.741638	821.134918	-101.005550	-1411.028931	861.785156	325.238861	-1450.394653	853.027283	-28.056530	-1567.485596	896.013611	214.497986	-1572.968750	895.078918	122.792641	-1570.227173	895.546265	168.645313	-1555.822876	1126.092041	155.133774	-1298.962891	1060.060059	147.011215	-1314.086060	535.445801	347.192474	-1296.836426	447.754822	302.041534	-1297.611084	280.590485	376.196075	-1275.129028	63.141998	292.633118	-1318.935181	48.454380	244.961548	-1146.199951	66.649841	276.740692	-1450.575928	493.158295	-19.377274	-1466.142944	412.120300	33.494175	-1492.104248	289.889069	-5.062415	-1558.862915	49.467564	85.537971	-1604.634766	44.701176	132.759018	-1424.901611	35.901089	100.303070
7	0.06000000	-1421.960449	1293.127930	349.667114	-1387.232910	1317.951538	-27.824753	-1465.310303	1371.470947	170.761215	-1322.937744	1250.327026	154.187103	-1476.830322	980.004028	402.845123	-1409.359009	995.091492	-112.834427	-1411.679199	759.692078	400.405472	-1281.447754	822.434784	-99.889206	-1401.091309	860.840088	325.991364	-1442.269165	851.893616	-27.127565	-1558.103394	895.060364	215.893860	-1563.935669	894.028198	124.276398	-1561.019531	894.544281	170.085129	-1546.597046	1125.188110	155.815094	-1289.772095	1058.925659	147.478821	-1308.686646	532.536194	348.916718	-1290.220459	445.589325	302.921295	-1282.321167	278.174683	376.617706	-1248.852173	61.537518	291.789856	-1291.948975	45.045727	244.175598	-1119.589844	71.541275	275.920990	-1445.328125	492.253235	-18.685970	-1461.780151	411.330109	34.272118	-1489.301392	289.609802	-4.617504	-1558.725098	49.588211	85.644951	-1604.541504	45.008732	132.823120	-1424.884033	35.873188	100.352280
